<svg xmlns="http://www.w3.org/2000/svg" viewBox="0 0 32 32" width="32" height="32">
  <defs>
    <linearGradient id="g" x1="0" y1="0" x2="32" y2="32" gradientUnits="userSpaceOnUse">
      <stop stop-color="#60A5FA"/>
      <stop offset="1" stop-color="#22D3A6"/>
    </linearGradient>
  </defs>
  <rect width="32" height="32" rx="7" fill="#0a0e1a"/>
  <circle cx="16" cy="16" r="11" fill="none" stroke="url(#g)" stroke-width="2"/>
  <path d="M16 8a8 8 0 0 1 6.9 4l-6.9.02L19.5 8ZM8 16a8 8 0 0 1 4-6.9l3.4 6L8 16ZM16 24a8 8 0 0 1-6.9-4l6.9-.02L12.5 24ZM24 16a8 8 0 0 1-4 6.9l-3.4-6L24 16Z" fill="url(#g)"/>
  <circle cx="16" cy="16" r="2.6" fill="#fff"/>
</svg>
